<svg width="44" height="44" viewBox="0 0 44 44" fill="none" xmlns="http://www.w3.org/2000/svg">
<path d="M7.33341 36.6667C6.32508 36.6667 5.46219 36.308 4.74475 35.5905C4.0273 34.8731 3.66797 34.0096 3.66675 33V11C3.66675 9.99168 4.02608 9.12879 4.74475 8.41134C5.46341 7.6939 6.3263 7.33457 7.33341 7.33334H36.6667C37.6751 7.33334 38.5386 7.69268 39.2572 8.41134C39.9759 9.13001 40.3346 9.9929 40.3334 11V33C40.3334 34.0083 39.9747 34.8718 39.2572 35.5905C38.5398 36.3092 37.6763 36.6679 36.6667 36.6667H7.33341ZM22.0001 23.8333L7.33341 14.6667V33H36.6667V14.6667L22.0001 23.8333ZM22.0001 20.1667L36.6667 11H7.33341L22.0001 20.1667ZM7.33341 14.6667V11V33V14.6667Z" fill="#EEEEEE"/>
</svg>
