<svg width="44" height="44" viewBox="0 0 44 44" fill="none" xmlns="http://www.w3.org/2000/svg">
<path d="M22.0001 3.66666C19.5925 3.66666 17.2085 4.14086 14.9842 5.0622C12.7599 5.98353 10.7389 7.33396 9.03646 9.03637C5.59829 12.4745 3.66675 17.1377 3.66675 22C3.66675 30.1033 8.92841 36.9783 16.2067 39.4167C17.1234 39.5633 17.4167 38.995 17.4167 38.5V35.4017C12.3384 36.5017 11.2567 32.945 11.2567 32.945C10.4134 30.8183 9.22175 30.25 9.22175 30.25C7.55341 29.1133 9.35008 29.15 9.35008 29.15C11.1834 29.2783 12.1551 31.0383 12.1551 31.0383C13.7501 33.825 16.4451 33 17.4901 32.56C17.6551 31.3683 18.1317 30.5617 18.6451 30.1033C14.5751 29.645 10.3034 28.0683 10.3034 21.0833C10.3034 19.0483 11.0001 17.4167 12.1917 16.115C12.0084 15.6567 11.3667 13.75 12.3751 11.275C12.3751 11.275 13.9151 10.78 17.4167 13.145C18.8651 12.7417 20.4417 12.54 22.0001 12.54C23.5584 12.54 25.1351 12.7417 26.5834 13.145C30.0851 10.78 31.6251 11.275 31.6251 11.275C32.6334 13.75 31.9917 15.6567 31.8084 16.115C33.0001 17.4167 33.6967 19.0483 33.6967 21.0833C33.6967 28.0867 29.4067 29.6267 25.3184 30.085C25.9784 30.6533 26.5834 31.7717 26.5834 33.4767V38.5C26.5834 38.995 26.8767 39.5817 27.8117 39.4167C35.0901 36.96 40.3334 30.1033 40.3334 22C40.3334 19.5924 39.8592 17.2084 38.9379 14.9841C38.0165 12.7598 36.6661 10.7388 34.9637 9.03637C33.2613 7.33396 31.2402 5.98353 29.0159 5.0622C26.7916 4.14086 24.4076 3.66666 22.0001 3.66666Z" fill="#EEEEEE"/>
</svg>
