<svg width="24" height="24" viewBox="0 0 24 24" fill="none" xmlns="http://www.w3.org/2000/svg">
<g clip-path="url(#clip0_1_102)">
<g filter="url(#filter0_d_1_102)">
<path fill-rule="evenodd" clip-rule="evenodd" d="M10.9399 7.94002C11.2211 7.65912 11.6024 7.50134 11.9999 7.50134C12.3974 7.50134 12.7786 7.65912 13.0599 7.94002L18.7179 13.596C18.8571 13.7354 18.9676 13.9008 19.043 14.0828C19.1183 14.2648 19.1571 14.4599 19.157 14.6569C19.157 14.8539 19.1181 15.0489 19.0427 15.2309C18.9672 15.4129 18.8567 15.5783 18.7174 15.7175C18.578 15.8568 18.4126 15.9672 18.2306 16.0426C18.0486 16.1179 17.8535 16.1567 17.6565 16.1567C17.4595 16.1566 17.2645 16.1178 17.0825 16.0423C16.9005 15.9669 16.7351 15.8564 16.5959 15.717L11.9999 11.122L7.40388 15.718C7.26558 15.8614 7.10011 15.9757 6.91715 16.0544C6.73418 16.1331 6.53737 16.1746 6.3382 16.1764C6.13903 16.1782 5.9415 16.1404 5.75712 16.065C5.57274 15.9897 5.40521 15.8784 5.2643 15.7376C5.1234 15.5968 5.01194 15.4294 4.93643 15.2451C4.86092 15.0608 4.82288 14.8633 4.82451 14.6641C4.82615 14.465 4.86744 14.2681 4.94596 14.0851C5.02449 13.902 5.13868 13.7365 5.28188 13.598L10.9399 7.94002Z" fill="#EEEEEE"/>
</g>
</g>
<defs>
<filter id="filter0_d_1_102" x="0.824463" y="7.50134" width="22.3325" height="16.6751" filterUnits="userSpaceOnUse" color-interpolation-filters="sRGB">
<feFlood flood-opacity="0" result="BackgroundImageFix"/>
<feColorMatrix in="SourceAlpha" type="matrix" values="0 0 0 0 0 0 0 0 0 0 0 0 0 0 0 0 0 0 127 0" result="hardAlpha"/>
<feOffset dy="4"/>
<feGaussianBlur stdDeviation="2"/>
<feComposite in2="hardAlpha" operator="out"/>
<feColorMatrix type="matrix" values="0 0 0 0 0 0 0 0 0 0 0 0 0 0 0 0 0 0 0.25 0"/>
<feBlend mode="normal" in2="BackgroundImageFix" result="effect1_dropShadow_1_102"/>
<feBlend mode="normal" in="SourceGraphic" in2="effect1_dropShadow_1_102" result="shape"/>
</filter>
<clipPath id="clip0_1_102">
<rect width="24" height="24" fill="white"/>
</clipPath>
</defs>
</svg>
